<svg xmlns="http://www.w3.org/2000/svg" viewBox="0 0 57.57 57.57"><defs><style>.cls-1{fill:#4d4d4d;}</style></defs><title>newspapper</title><g id="Layer_2" data-name="Layer 2"><g id="Layer_1-2" data-name="Layer 1"><path class="cls-1" d="M50.78,10.15h4.69a4.23,4.23,0,0,1,1,.14,1.51,1.51,0,0,1,1,1.19,3.64,3.64,0,0,1,.05.67q0,18.33,0,36.65a8.46,8.46,0,0,1-3,6.7,8.37,8.37,0,0,1-5.67,2.06H8.65A8.4,8.4,0,0,1,.47,51.78,8.93,8.93,0,0,1,0,49Q0,25.4,0,1.84A1.7,1.7,0,0,1,1.85,0H48.94a1.69,1.69,0,0,1,1.84,1.84c0,2.57,0,5.15,0,7.72ZM3.39,3.4v.48q0,22.49,0,45a5.12,5.12,0,0,0,5.35,5.34h40.1a5.12,5.12,0,0,0,5.34-5.35V13.59h-3.4V45.27c0,.19,0,.39,0,.58a1.67,1.67,0,0,1-2.22,1.44c-.82-.28-1.16-.83-1.16-1.91V3.4Z"/><path class="cls-1" d="M6.81,10.19H23.67V27.06H6.81Zm13.48,3.39H10.21V23.67H20.29Z"/><path class="cls-1" d="M6.82,30.5H44v3.33H6.82Z"/><path class="cls-1" d="M44,44v3.31H6.81V44Z"/><path class="cls-1" d="M6.8,40.59v-3.3H44v3.3Z"/><path class="cls-1" d="M44,17v3.32H27.12V17Z"/><path class="cls-1" d="M44,23.73v3.33H27.11V23.73Z"/><path class="cls-1" d="M27.12,10.18H44v3.33H27.12Z"/></g></g></svg>